<svg width="32" height="32" version="1.1" viewBox="0 0 8.4667 8.4667" xmlns="http://www.w3.org/2000/svg"><g stroke-linecap="round" stroke-width="1.7134"><path d="m2.967 0.12957c-1.3926 0.00363-2.5222 1.1406-2.5198 2.5332 0.002418 1.3926 1.1339 2.521 2.5265 2.5198 1.3602-0.00118 2.442-1.095 2.4931-2.4429a0.15249 0.15249 0 0 0 0.030117-0.073621 0.15249 0.15249 0 0 0 0.00334-0.01004 0.15249 0.15249 0 0 0 0-0.0067c-1.32e-5 -0.0038-0.00332-0.00624-0.00334-0.01004a0.15249 0.15249 0 0 0-0.030117-0.070265c-0.05403-1.3492-1.1385-2.4431-2.4997-2.4395zm0 0.30787c1.2279-0.0032 2.2244 0.98409 2.2287 2.212a0.15249 0.15249 0 0 0 0 0.00334 0.15249 0.15249 0 0 0 0 0.00334c0 1.2279-0.99412 2.2209-2.222 2.222-1.2279 0.00108-2.2199-0.98742-2.222-2.2153-0.002132-1.2279 0.98744-2.2221 2.2153-2.2253z" color="#000000" stroke-linejoin="bevel" style="-inkscape-stroke:none;paint-order:fill markers stroke"/><path d="m4.6858 4.5507a0.1525 0.1525 0 0 0-0.21061-0.031585l-0.13993 0.10344a0.1525 0.1525 0 0 0-0.034275 0.2126l2.7032 3.6571a0.1525 0.1525 0 0 0 0.21529 0.032286l0.13993-0.10344a0.1525 0.1525 0 0 0 0.029595-0.2133z" color="#000000" stroke-linejoin="round" style="-inkscape-stroke:none;paint-order:fill markers stroke"/></g></svg>
